<svg width="25" height="25" viewBox="0 0 25 25" fill="none" xmlns="http://www.w3.org/2000/svg">
<path d="M24.4786 1.66319L15.3373 8.27185L13.8373 9.35879C13.0427 9.94584 11.958 9.94584 11.1634 9.35879L9.66342 8.27185L0.51123 1.67404C1.02028 0.962155 1.84258 0.540841 2.71777 0.543592H22.283C23.1517 0.544357 23.9678 0.960474 24.4786 1.66319Z" fill="#FFD54F"/>
<path d="M0.51091 1.67395L9.6631 8.27176L0.793535 17.1413C0.284229 16.6307 -0.00125004 15.9386 2.37323e-05 15.2174V3.26092C-0.00237097 2.69109 0.176518 2.13531 0.51091 1.67395Z" fill="#FFC107"/>
<path d="M24.9999 3.26079V15.2173C25.0012 15.9385 24.7158 16.6306 24.2065 17.1412L15.3369 8.27167L24.4782 1.66296C24.8176 2.12652 25.0003 2.68621 24.9999 3.26079Z" fill="#FFC107"/>
<path d="M16.3041 20.1087C15.5824 20.1087 15.2171 19.5652 15.2171 18.4783C15.2349 16.9596 14.0182 15.7141 12.4995 15.6963C10.9808 15.6785 9.73532 16.8952 9.71754 18.4139C9.69976 19.9326 10.9165 21.1781 12.4352 21.1959C13.2491 21.2054 14.0254 20.8539 14.5552 20.2359C14.9161 20.8543 15.5886 21.2234 16.3041 21.1956C18.478 21.1956 18.478 19.15 18.478 18.4783C18.4781 15.1766 15.8015 12.5 12.4999 12.4999C9.1982 12.4998 6.52159 15.1763 6.52148 18.4781C6.52143 21.7797 9.19794 24.4564 12.4996 24.4565C14.0508 24.4565 15.5413 23.8536 16.6563 22.7751C16.8721 22.5649 16.8767 22.2197 16.6666 22.0039C16.4565 21.788 16.1112 21.7835 15.8954 21.9935C13.9511 23.8689 10.8546 23.8129 8.97921 21.8686C7.10385 19.9243 7.1598 16.8278 9.10414 14.9524C11.0485 13.0771 14.145 13.133 16.0203 15.0773C16.901 15.9904 17.3924 17.2098 17.3911 18.4783C17.3911 19.6968 17.1172 20.1087 16.3041 20.1087ZM12.4998 20.1087C11.5993 20.1087 10.8693 19.3787 10.8693 18.4783C10.8693 17.5778 11.5993 16.8478 12.4998 16.8478C13.4002 16.8478 14.1302 17.5778 14.1302 18.4783C14.1302 19.3787 13.4002 20.1087 12.4998 20.1087Z" fill="#455A64"/>
<path d="M15.3369 8.27185L13.8369 9.35879C13.0423 9.94584 11.9576 9.94584 11.163 9.35879L9.66302 8.27185L0.793457 17.1414C1.30404 17.6507 1.99616 17.9362 2.71737 17.9348H5.4619C5.75594 14.0482 9.14505 11.1357 13.0318 11.4297C16.5097 11.6928 19.2738 14.457 19.5369 17.9348H22.2826C23.0038 17.9361 23.6959 17.6507 24.2065 17.1414L15.3369 8.27185Z" fill="#FFA000"/>
</svg>
