<svg width="19" height="25" viewBox="0 0 19 25" fill="none" xmlns="http://www.w3.org/2000/svg">
<path d="M10.3057 13.1104L7.62217 17.2586L5.06147 18.3544C3.55273 16.6259 1.94146 14.5752 1.17969 11.9824L2.71289 9.13086L5.17871 7.9834C5.13481 8.24707 5.10547 8.51074 5.10547 8.78906C5.10547 11.206 7.08296 13.1836 9.5 13.1836C9.77832 13.1836 10.042 13.1542 10.3057 13.1104Z" fill="#FFDA2D"/>
<path d="M13.8218 9.59033C13.8657 9.32812 13.8945 9.06592 13.8945 8.78906C13.8945 6.37402 11.9199 4.39746 9.50537 4.39453H9.5C9.22168 4.39453 8.95801 4.42383 8.69434 4.46777L12.5908 0.571289C14.9492 1.4502 16.8389 3.33984 17.7178 5.69824L13.8213 9.59473C13.8213 9.59326 13.8218 9.5918 13.8218 9.59033Z" fill="#80AEF8"/>
<path d="M17.7183 5.69824L16.3853 8.30078L13.8218 9.59473C13.8218 9.59326 13.8223 9.5918 13.8223 9.59033C13.8662 9.32812 13.895 9.06592 13.895 8.78906C13.895 6.37402 11.9204 4.39746 9.50586 4.39453H9.50195V3.66064L10.3794 1.70898L12.5913 0.571289C14.9497 1.4502 16.8394 3.33984 17.7183 5.69824Z" fill="#4086F4"/>
<path d="M17.7179 5.69824L13.8214 9.59468C13.4844 11.3672 12.0782 12.7734 10.3057 13.1104H10.3057L6.06387 17.3521L5.06152 18.3544C5.3106 18.6327 5.53027 18.8818 5.7647 19.1455C7.37607 20.9766 8.76768 22.6562 8.76768 24.2676C8.76768 24.6777 9.08989 25 9.5001 25C9.9103 25 10.2325 24.6777 10.2325 24.2676C10.2325 22.6562 11.6241 20.9766 13.2354 19.1455C15.4914 16.6113 18.2892 13.4473 18.2892 8.78906C18.2892 7.70508 18.0987 6.66504 17.7179 5.69824Z" fill="#59C36A"/>
<path d="M17.7177 5.69824L13.8213 9.59463V9.59468C13.4843 11.3672 12.0781 12.7734 10.3056 13.1104C10.3056 13.1104 10.3056 13.1104 10.3055 13.1104L9.50146 13.9144V24.9997C9.91094 24.9988 10.2324 24.6771 10.2324 24.2676C10.2324 22.6562 11.624 20.9766 13.2353 19.1455C15.4912 16.6113 18.289 13.4473 18.289 8.78906C18.289 7.70508 18.0986 6.66504 17.7177 5.69824Z" fill="#00A66C"/>
<path d="M9.50098 13.9145L10.3051 13.1104C10.042 13.1542 9.77881 13.1832 9.50098 13.1834V13.9145Z" fill="#FDBF00"/>
<path d="M12.5908 0.571289L8.69433 4.46777C7.80077 4.64355 7.00971 5.06831 6.39453 5.68364L4.1289 4.73633L3.28906 2.57812C4.87114 0.981396 7.0684 0 9.49999 0C10.584 0 11.624 0.19043 12.5908 0.571289Z" fill="#4086F4"/>
<path d="M9.50098 3.66069L12.5903 0.571387C11.624 0.190674 10.5844 0.000439453 9.50103 0.000244141V3.66069H9.50098Z" fill="#4175DF"/>
<path d="M6.39453 5.68359C5.77935 6.29883 5.35444 7.0898 5.17871 7.9834L1.17969 11.9824C0.886719 11.001 0.710938 9.94629 0.710938 8.78906C0.710938 6.35737 1.69233 4.16011 3.28906 2.57812L6.39453 5.68359Z" fill="#F03800"/>
</svg>
