<svg width="14" height="14" viewBox="0 0 14 14" fill="none" xmlns="http://www.w3.org/2000/svg">
<g clip-path="url(#clip0)">
<path d="M13.4066 5.07816H10.5022L8.87295 1.34757C8.78231 1.14 8.54053 1.04515 8.33294 1.13585C8.12535 1.22649 8.03055 1.46829 8.12122 1.67589L9.60708 5.07819H4.39295L5.87881 1.67589C5.96946 1.46829 5.87468 1.22652 5.66709 1.13585C5.45952 1.04515 5.21769 1.13995 5.12708 1.34757L3.49783 5.07816H0.593401C0.213459 5.07816 -0.0685095 5.42212 0.0146155 5.78417L1.54409 12.4459C1.60482 12.7105 1.84528 12.8985 2.12287 12.8985H11.8772C12.1547 12.8985 12.3952 12.7105 12.4559 12.4459L13.9854 5.78417C14.0685 5.42214 13.7865 5.07816 13.4066 5.07816ZM3.57499 6.33608C3.52019 6.33608 3.46449 6.32503 3.41104 6.30168C3.20344 6.21104 3.10864 5.96926 3.19931 5.76164L3.50742 5.05612H4.40255L3.95105 6.08993C3.88376 6.24412 3.73309 6.33608 3.57499 6.33608ZM4.94923 10.711C4.94923 10.9375 4.76559 11.1211 4.53908 11.1211C4.31256 11.1211 4.12892 10.9375 4.12892 10.711V7.70316C4.12892 7.47664 4.31256 7.293 4.53908 7.293C4.76559 7.293 4.94923 7.47664 4.94923 7.70316V10.711ZM7.41017 10.711C7.41017 10.9375 7.22653 11.1211 7.00001 11.1211C6.7735 11.1211 6.58986 10.9375 6.58986 10.711V7.70316C6.58986 7.47664 6.7735 7.293 7.00001 7.293C7.22653 7.293 7.41017 7.47664 7.41017 7.70316V10.711ZM9.87111 10.711C9.87111 10.9375 9.68747 11.1211 9.46095 11.1211C9.23444 11.1211 9.0508 10.9375 9.0508 10.711V7.70316C9.0508 7.47664 9.23444 7.293 9.46095 7.293C9.68747 7.293 9.87111 7.47664 9.87111 7.70316V10.711ZM10.589 6.30168C10.5355 6.32503 10.4798 6.33608 10.425 6.33608C10.2669 6.33608 10.1163 6.24415 10.049 6.08996L9.59745 5.05615H10.4926L10.8007 5.76167C10.8914 5.96926 10.7966 6.21104 10.589 6.30168Z" fill="white"/>
</g>
<defs>
<clipPath id="clip0">
<rect width="14" height="14" fill="white"/>
</clipPath>
</defs>
</svg>
