<svg width="15" height="14" viewBox="0 0 15 14" fill="none" xmlns="http://www.w3.org/2000/svg">
<path d="M7.40489 0.292705C7.43483 0.200574 7.56517 0.200574 7.59511 0.292705L9.1614 5.11327C9.17479 5.15448 9.21319 5.18237 9.25651 5.18237H14.3252C14.422 5.18237 14.4623 5.30633 14.3839 5.36327L10.2833 8.34255C10.2483 8.36801 10.2336 8.41315 10.247 8.45435L11.8133 13.2749C11.8432 13.3671 11.7378 13.4437 11.6594 13.3867L7.55878 10.4074C7.52373 10.382 7.47627 10.382 7.44122 10.4075L3.3406 13.3867C3.26223 13.4437 3.15678 13.3671 3.18672 13.2749L4.75301 8.45435C4.7664 8.41315 4.75174 8.36801 4.71669 8.34255L0.616066 5.36327C0.537695 5.30633 0.577972 5.18237 0.674844 5.18237H5.74349C5.78681 5.18237 5.82521 5.15448 5.8386 5.11327L7.40489 0.292705Z" fill="#FFD465"/>
</svg>
