<svg width="165" height="60" viewBox="0 0 165 60" fill="none" xmlns="http://www.w3.org/2000/svg">
<path d="M32 29.5L159 30.008" stroke="#E5E5E5"/>
<circle cx="30" cy="30" r="29.5" fill="white" stroke="#E5E5E5"/>
<circle cx="30" cy="30" r="25" fill="#E5E5E5"/>
<path d="M26.08 23V20.504H31.072V38H28.312V23H26.08Z" fill="#888888"/>
<circle cx="140" cy="30" r="25" fill="#E5E5E5"/>
<path d="M134.224 36.68C137.168 34.472 139.44 32.496 141.04 30.752C142.656 28.992 143.464 27.272 143.464 25.592C143.464 24.488 143.184 23.608 142.624 22.952C142.08 22.28 141.184 21.944 139.936 21.944C138.72 21.944 137.776 22.328 137.104 23.096C136.448 23.848 136.08 24.856 136 26.12H134.368C134.464 24.344 135.008 22.968 136 21.992C137.008 21 138.32 20.504 139.936 20.504C141.488 20.504 142.744 20.944 143.704 21.824C144.664 22.688 145.144 23.92 145.144 25.52C145.144 27.456 144.336 29.336 142.72 31.16C141.12 32.968 139.144 34.736 136.792 36.464H145.672V37.88H134.224V36.68Z" fill="#888888"/>
</svg>
