<svg width="25" height="25" viewBox="0 0 25 25" fill="none" xmlns="http://www.w3.org/2000/svg">
<path d="M24.4786 1.66313L15.3373 8.27179L13.8373 9.35873C13.0427 9.94578 11.958 9.94578 11.1634 9.35873L9.66342 8.27179L0.51123 1.67398C1.02028 0.962094 1.84258 0.54078 2.71777 0.543531H22.283C23.1517 0.544296 23.9678 0.960413 24.4786 1.66313Z" fill="#FFD54F"/>
<path d="M0.51091 1.67401L9.6631 8.27182L0.793535 17.1414C0.284229 16.6308 -0.00125004 15.9387 2.37323e-05 15.2175V3.26098C-0.00237097 2.69115 0.176518 2.13537 0.51091 1.67401Z" fill="#FFC107"/>
<path d="M24.9999 3.26085V15.2174C25.0012 15.9386 24.7158 16.6307 24.2065 17.1413L15.3369 8.27173L24.4782 1.66302C24.8176 2.12658 25.0003 2.68627 24.9999 3.26085Z" fill="#FFC107"/>
<path d="M16.3041 20.1088C15.5824 20.1088 15.2171 19.5653 15.2171 18.4783C15.2349 16.9596 14.0182 15.7141 12.4995 15.6964C10.9808 15.6786 9.73532 16.8953 9.71754 18.414C9.69976 19.9327 10.9165 21.1782 12.4352 21.196C13.2491 21.2055 14.0254 20.8539 14.5552 20.2359C14.9161 20.8544 15.5886 21.2234 16.3041 21.1957C18.478 21.1957 18.478 19.1501 18.478 18.4783C18.4781 15.1767 15.8015 12.5 12.4999 12.4999C9.1982 12.4998 6.52159 15.1764 6.52148 18.4781C6.52143 21.7798 9.19794 24.4564 12.4996 24.4565C14.0508 24.4566 15.5413 23.8536 16.6563 22.7751C16.8721 22.565 16.8767 22.2198 16.6666 22.0039C16.4565 21.7881 16.1112 21.7835 15.8954 21.9936C13.9511 23.869 10.8546 23.813 8.97921 21.8687C7.10385 19.9243 7.1598 16.8278 9.10414 14.9525C11.0485 13.0771 14.145 13.1331 16.0203 15.0774C16.901 15.9904 17.3924 17.2099 17.3911 18.4784C17.3911 19.6968 17.1172 20.1088 16.3041 20.1088ZM12.4998 20.1088C11.5993 20.1088 10.8693 19.3788 10.8693 18.4783C10.8693 17.5779 11.5993 16.8479 12.4998 16.8479C13.4002 16.8479 14.1302 17.5779 14.1302 18.4783C14.1302 19.3788 13.4002 20.1088 12.4998 20.1088Z" fill="#455A64"/>
<path d="M15.3369 8.27191L13.8369 9.35885C13.0423 9.9459 11.9576 9.9459 11.163 9.35885L9.66302 8.27191L0.793457 17.1415C1.30404 17.6508 1.99616 17.9362 2.71737 17.9349H5.4619C5.75594 14.0482 9.14505 11.1358 13.0318 11.4298C16.5097 11.6929 19.2738 14.4571 19.5369 17.9349H22.2826C23.0038 17.9362 23.6959 17.6508 24.2065 17.1415L15.3369 8.27191Z" fill="#FFA000"/>
</svg>
