<svg width="25" height="25" viewBox="0 0 25 25" fill="none" xmlns="http://www.w3.org/2000/svg">
<g clip-path="url(#clip0)">
<path d="M13.3057 13.1104L10.6222 17.2586L8.06147 18.3544C6.55273 16.6259 4.94146 14.5752 4.17969 11.9824L5.71289 9.13086L8.17871 7.9834C8.13481 8.24707 8.10547 8.51074 8.10547 8.78906C8.10547 11.206 10.083 13.1836 12.5 13.1836C12.7783 13.1836 13.042 13.1542 13.3057 13.1104Z" fill="#FFDA2D"/>
<path d="M16.8218 9.59039C16.8657 9.32819 16.8945 9.06598 16.8945 8.78912C16.8945 6.37408 14.9199 4.39752 12.5054 4.39459H12.5C12.2217 4.39459 11.958 4.42389 11.6943 4.46783L15.5908 0.57135C17.9492 1.45026 19.8389 3.3399 20.7178 5.6983L16.8213 9.59479C16.8213 9.59332 16.8218 9.59186 16.8218 9.59039Z" fill="#80AEF8"/>
<path d="M20.7183 5.6983L19.3853 8.30084L16.8218 9.59479C16.8218 9.59332 16.8223 9.59186 16.8223 9.59039C16.8662 9.32819 16.895 9.06598 16.895 8.78912C16.895 6.37408 14.9204 4.39752 12.5059 4.39459H12.502V3.66071L13.3794 1.70905L15.5913 0.57135C17.9497 1.45026 19.8394 3.3399 20.7183 5.6983Z" fill="#4086F4"/>
<path d="M20.7179 5.6983L16.8214 9.59474C16.4844 11.3672 15.0782 12.7734 13.3057 13.1104H13.3057L9.06387 17.3522L8.06152 18.3545C8.3106 18.6328 8.53027 18.8819 8.7647 19.1455C10.3761 20.9766 11.7677 22.6563 11.7677 24.2676C11.7677 24.6777 12.0899 25.0001 12.5001 25.0001C12.9103 25.0001 13.2325 24.6777 13.2325 24.2676C13.2325 22.6563 14.6241 20.9766 16.2354 19.1456C18.4914 16.6113 21.2892 13.4473 21.2892 8.78912C21.2892 7.70514 21.0987 6.6651 20.7179 5.6983Z" fill="#59C36A"/>
<path d="M20.7177 5.6983L16.8213 9.59469V9.59474C16.4843 11.3672 15.0781 12.7734 13.3056 13.1104C13.3056 13.1104 13.3056 13.1104 13.3055 13.1104L12.5015 13.9144V24.9998C12.9109 24.9989 13.2324 24.6772 13.2324 24.2676C13.2324 22.6563 14.624 20.9766 16.2353 19.1456C18.4912 16.6113 21.289 13.4473 21.289 8.78912C21.289 7.70514 21.0986 6.6651 20.7177 5.6983Z" fill="#00A66C"/>
<path d="M12.501 13.9145L13.3051 13.1104C13.042 13.1542 12.7788 13.1832 12.501 13.1834V13.9145Z" fill="#FDBF00"/>
<path d="M15.5908 0.571289L11.6943 4.46777C10.8008 4.64355 10.0097 5.06831 9.39453 5.68364L7.1289 4.73633L6.28906 2.57812C7.87114 0.981396 10.0684 0 12.5 0C13.584 0 14.624 0.19043 15.5908 0.571289Z" fill="#4086F4"/>
<path d="M12.501 3.66069L15.5903 0.571387C14.624 0.190674 13.5844 0.000439453 12.501 0.000244141V3.66069H12.501Z" fill="#4175DF"/>
<path d="M9.39453 5.68353C8.77935 6.29877 8.35444 7.08973 8.17871 7.98334L4.17969 11.9824C3.88672 11.001 3.71094 9.94623 3.71094 8.789C3.71094 6.35731 4.69233 4.16005 6.28906 2.57806L9.39453 5.68353Z" fill="#F03800"/>
</g>
<defs>
<clipPath id="clip0">
<rect width="25" height="25" fill="white"/>
</clipPath>
</defs>
</svg>
