<svg width="40" height="40" viewBox="0 0 40 40" fill="none" xmlns="http://www.w3.org/2000/svg">
<rect opacity="0.5" width="40" height="40" rx="5" fill="#FFC737" fill-opacity="0.25"/>
<g clip-path="url(#clip0)">
<g clip-path="url(#clip1)">
<path d="M24.7086 10.9804H16.0758C13.2662 10.9804 10.9805 13.2661 10.9805 16.0758V24.7087C10.9805 27.5182 13.2662 29.8039 16.0758 29.8039H24.7088C27.5182 29.8039 29.804 27.5182 29.804 24.7087V16.0758C29.804 13.2661 27.5182 10.9804 24.7086 10.9804V10.9804ZM20.3922 25.5391C17.5542 25.5391 15.2453 23.2302 15.2453 20.3922C15.2453 17.5541 17.5542 15.2452 20.3922 15.2452C23.2303 15.2452 25.5391 17.5541 25.5391 20.3922C25.5391 23.2302 23.2303 25.5391 20.3922 25.5391ZM25.6622 16.4591C24.8235 16.4591 24.1413 15.7769 24.1413 14.9382C24.1413 14.0995 24.8235 13.4172 25.6622 13.4172C26.5009 13.4172 27.1832 14.0995 27.1832 14.9382C27.1832 15.7769 26.5009 16.4591 25.6622 16.4591Z" fill="#FFC737"/>
<path d="M20.392 16.3488C18.1626 16.3488 16.3486 18.1626 16.3486 20.3921C16.3486 22.6216 18.1626 24.4355 20.392 24.4355C22.6216 24.4355 24.4354 22.6216 24.4354 20.3921C24.4354 18.1626 22.6216 16.3488 20.392 16.3488Z" fill="#FFC737"/>
<path d="M25.662 14.5209C25.4319 14.5209 25.2446 14.7081 25.2446 14.9382C25.2446 15.1683 25.4319 15.3555 25.662 15.3555C25.8922 15.3555 26.0794 15.1684 26.0794 14.9382C26.0794 14.708 25.8922 14.5209 25.662 14.5209Z" fill="#FFC737"/>
</g>
</g>
<defs>
<clipPath id="clip0">
<rect width="18.8235" height="18.8235" fill="white" transform="translate(10.9805 10.9804)"/>
</clipPath>
<clipPath id="clip1">
<rect width="18.8235" height="18.8235" fill="white" transform="translate(10.9805 10.9804)"/>
</clipPath>
</defs>
</svg>
