<svg width="25" height="25" viewBox="0 0 25 25" fill="none" xmlns="http://www.w3.org/2000/svg">
<g clip-path="url(#clip0)">
<path d="M23.0263 16.4605C21.5031 16.4635 19.9892 16.2227 18.5421 15.7474C17.8655 15.5108 17.1135 15.67 16.5908 16.1605L13.7513 18.3027C10.7019 16.7716 8.22768 14.2979 6.6961 11.2487L8.78161 8.47766C9.30815 7.95075 9.49645 7.17404 9.26979 6.4645C8.79265 5.01538 8.55056 3.49928 8.55266 1.97369C8.55266 0.883656 7.669 0 6.57897 0H1.97369C0.883656 0 0 0.883656 0 1.97369C0.0144943 14.6848 10.3152 24.9855 23.0263 25C24.1163 25 25 24.1163 25 23.0263V18.4342C25 17.3442 24.1163 16.4605 23.0263 16.4605Z" fill="#009688"/>
<path d="M24.3421 10.5263C23.9788 10.5263 23.6842 10.2318 23.6842 9.86843C23.6784 5.14731 19.8527 1.32157 15.1315 1.31577C14.7682 1.31577 14.4736 1.0212 14.4736 0.657854C14.4736 0.294511 14.7682 0 15.1315 0C20.5794 0.0057977 24.9942 4.42062 25 9.86843C25 10.2318 24.7055 10.5263 24.3421 10.5263Z" fill="#455A64"/>
<path d="M19.0789 10.5263C18.7156 10.5263 18.421 10.2318 18.421 9.86842C18.421 8.0517 16.9483 6.57896 15.1315 6.57896C14.7682 6.57896 14.4736 6.28438 14.4736 5.92104C14.4736 5.5577 14.7682 5.26312 15.1315 5.26312C17.675 5.26312 19.7368 7.32501 19.7368 9.86842C19.7368 10.2318 19.4422 10.5263 19.0789 10.5263Z" fill="#455A64"/>
</g>
<defs>
<clipPath id="clip0">
<rect width="25" height="25" fill="white"/>
</clipPath>
</defs>
</svg>
