<svg width="40" height="40" viewBox="0 0 40 40" fill="none" xmlns="http://www.w3.org/2000/svg">
<rect opacity="0.5" width="40" height="40" rx="5" fill="#FFC737" fill-opacity="0.25"/>
<g clip-path="url(#clip0)">
<path d="M28.2356 15.5284C27.6523 15.7843 27.0307 15.9539 26.3827 16.0363C27.0493 15.6382 27.5581 15.0127 27.7974 14.2588C27.1758 14.6294 26.4895 14.8912 25.7581 15.0372C25.1679 14.4088 24.3268 14.0196 23.4091 14.0196C21.6287 14.0196 20.1954 15.4647 20.1954 17.2363C20.1954 17.4912 20.217 17.7363 20.2699 17.9696C17.5964 17.8392 15.2307 16.5578 13.6415 14.6059C13.364 15.0872 13.2013 15.6382 13.2013 16.2314C13.2013 17.3451 13.7748 18.3323 14.6297 18.9039C14.113 18.8941 13.6062 18.7441 13.1768 18.5078C13.1768 18.5176 13.1768 18.5304 13.1768 18.5431C13.1768 20.1059 14.2915 21.4039 15.7532 21.7029C15.4915 21.7745 15.2062 21.8088 14.9101 21.8088C14.7042 21.8088 14.4964 21.797 14.3013 21.7539C14.7179 23.0274 15.9003 23.9637 17.3062 23.9941C16.2121 24.85 14.8228 25.3657 13.3189 25.3657C13.0552 25.3657 12.8023 25.3539 12.5493 25.3216C13.9738 26.2402 15.6621 26.7647 17.4827 26.7647C23.4003 26.7647 26.6356 21.8627 26.6356 17.6137C26.6356 17.4716 26.6307 17.3343 26.6238 17.198C27.2621 16.7451 27.7983 16.1794 28.2356 15.5284Z" fill="#FFC737"/>
</g>
<defs>
<clipPath id="clip0">
<rect width="15.6863" height="15.6863" fill="white" transform="translate(12.5493 12.549)"/>
</clipPath>
</defs>
</svg>
